<svg width="375" height="812" viewBox="0 0 375 812" fill="none" xmlns="http://www.w3.org/2000/svg">
<g clip-path="url(#clip0_994_4262)">
<rect width="375" height="812" fill="white"/>
<rect width="360" height="640" fill="white"/>
<path opacity="0.8" fill-rule="evenodd" clip-rule="evenodd" d="M-65 -187.5C-65 -187.776 -64.7761 -188 -64.5 -188C-64.2238 -188 -64 -187.776 -64 -187.5V-170H-33V-187.5C-33 -187.776 -32.7761 -188 -32.5 -188C-32.2238 -188 -32 -187.776 -32 -187.5V-170H-0.999969V-187.5C-0.999969 -187.776 -0.776115 -188 -0.499969 -188C-0.223824 -188 3.05176e-05 -187.776 3.05176e-05 -187.5V-170H31V-187.5C31 -187.776 31.2239 -188 31.5 -188C31.7762 -188 32 -187.776 32 -187.5V-170H63V-187.5C63 -187.776 63.2239 -188 63.5 -188C63.7762 -188 64 -187.776 64 -187.5V-170H95V-187.5C95 -187.776 95.2239 -188 95.5 -188C95.7762 -188 96 -187.776 96 -187.5V-170H127V-187.5C127 -187.776 127.224 -188 127.5 -188C127.776 -188 128 -187.776 128 -187.5V-170H159V-187.5C159 -187.776 159.224 -188 159.5 -188C159.776 -188 160 -187.776 160 -187.5V-170H191V-187.5C191 -187.776 191.224 -188 191.5 -188C191.776 -188 192 -187.776 192 -187.5V-170H223V-187.5C223 -187.776 223.224 -188 223.5 -188C223.776 -188 224 -187.776 224 -187.5V-170H255V-187.5C255 -187.776 255.224 -188 255.5 -188C255.776 -188 256 -187.776 256 -187.5V-170H267.5C267.776 -170 268 -169.776 268 -169.5C268 -169.224 267.776 -169 267.5 -169H256V-138H267.5C267.776 -138 268 -137.776 268 -137.5C268 -137.224 267.776 -137 267.5 -137H256V-106H267.5C267.776 -106 268 -105.776 268 -105.5C268 -105.224 267.776 -105 267.5 -105H256V-74H302.5C302.776 -74 303 -73.7761 303 -73.5C303 -73.2238 302.776 -73 302.5 -73H256V-42H274.5C274.776 -42 275 -41.7761 275 -41.5C275 -41.2238 274.776 -41 274.5 -41H256V-9.99998H302.5C302.776 -9.99998 303 -9.77612 303 -9.49998C303 -9.22385 302.776 -8.99998 302.5 -8.99998H256V22H274.5C274.776 22 275 22.2239 275 22.5C275 22.7762 274.776 23 274.5 23H256V54H302.5C302.776 54 303 54.2239 303 54.5C303 54.7762 302.776 55 302.5 55H256V86H274.5C274.776 86 275 86.2238 275 86.5C275 86.7761 274.776 87 274.5 87H256V118H302.5C302.776 118 303 118.224 303 118.5C303 118.776 302.776 119 302.5 119H256V150H274.5C274.776 150 275 150.224 275 150.5C275 150.776 274.776 151 274.5 151H256V203.5C256 203.776 255.776 204 255.5 204C255.224 204 255 203.776 255 203.5V151H224V163.5C224 163.776 223.776 164 223.5 164C223.224 164 223 163.776 223 163.5V151H192V203.5C192 203.776 191.776 204 191.5 204C191.224 204 191 203.776 191 203.5V151H160V163.5C160 163.776 159.776 164 159.5 164C159.224 164 159 163.776 159 163.5V151H128V203.5C128 203.776 127.776 204 127.5 204C127.224 204 127 203.776 127 203.5V151H96V163.5C96 163.776 95.7762 164 95.5 164C95.2239 164 95 163.776 95 163.5V151H64V203.5C64 203.776 63.7762 204 63.5 204C63.2239 204 63 203.776 63 203.5V151H32V163.5C32 163.776 31.7762 164 31.5 164C31.2239 164 31 163.776 31 163.5V151H1.52588e-05V163.5C1.52588e-05 163.776 -0.223839 164 -0.499985 164C-0.776131 164 -0.999985 163.776 -0.999985 163.5V151H-32V163.5C-32 163.776 -32.2238 164 -32.5 164C-32.7761 164 -33 163.776 -33 163.5V151H-64V163.5C-64 163.776 -64.2238 164 -64.5 164C-64.7761 164 -65 163.776 -65 163.5V151H-83.5C-83.7761 151 -84 150.776 -84 150.5C-84 150.224 -83.7761 150 -83.5 150H-65L-65 119H-83.5C-83.7761 119 -84 118.776 -84 118.5C-84 118.224 -83.7761 118 -83.5 118H-65L-65 87H-83.5C-83.7761 87 -84 86.7762 -84 86.5C-84 86.2238 -83.7761 86 -83.5 86H-65V55H-83.5C-83.7761 55 -84 54.7762 -84 54.5C-84 54.2239 -83.7761 54 -83.5 54H-65L-65 23H-83.5C-83.7761 23 -84 22.7762 -84 22.5C-84 22.2239 -83.7761 22 -83.5 22H-65L-65 -8.99998H-83.5C-83.7761 -8.99998 -84 -9.22385 -84 -9.49998C-84 -9.77612 -83.7761 -9.99998 -83.5 -9.99998H-65L-65 -41H-83.5C-83.7761 -41 -84 -41.2238 -84 -41.5C-84 -41.7761 -83.7761 -42 -83.5 -42H-65V-73H-83.5C-83.7761 -73 -84 -73.2238 -84 -73.5C-84 -73.7761 -83.7761 -74 -83.5 -74H-65L-65 -105H-83.5C-83.7761 -105 -84 -105.224 -84 -105.5C-84 -105.776 -83.7761 -106 -83.5 -106H-65L-65 -137H-83.5C-83.7761 -137 -84 -137.224 -84 -137.5C-84 -137.776 -83.7761 -138 -83.5 -138H-65L-65 -169H-83.5C-83.7761 -169 -84 -169.224 -84 -169.5C-84 -169.776 -83.7761 -170 -83.5 -170H-65V-187.5ZM-64 -169L-64 -138H-33L-33 -169H-64ZM-32 -169L-32 -138H-0.999969V-169H-32ZM3.05176e-05 -169V-138H31V-169H3.05176e-05ZM32 -169V-138H63V-169H32ZM64 -169V-138H95V-169H64ZM96 -169V-138H127V-169H96ZM128 -169V-138H159V-169H128ZM160 -169V-138H191V-169H160ZM192 -169V-138H223V-169H192ZM224 -169V-138H255V-169H224ZM255 -137H224V-106H255V-137ZM255 -105H224V-74H255V-105ZM255 -73H224V-42H255V-73ZM255 -41H224V-9.99998H255V-41ZM255 -8.99998H224V22H255V-8.99998ZM255 23H224V54H255V23ZM255 55H224V86H255V55ZM255 87H224V118H255V87ZM255 119H224V150H255V119ZM223 150V119H192V150H223ZM191 150V119H160V150H191ZM159 150V119H128V150H159ZM127 150V119H96V150H127ZM95 150V119H64V150H95ZM63 150V119H32V150H63ZM31 150V119H1.52588e-05V150H31ZM-0.999985 150V119H-32L-32 150H-0.999985ZM-33 150L-33 119H-64L-64 150H-33ZM-64 118H-33V87H-64L-64 118ZM-64 86H-33V55H-64V86ZM-64 54H-33L-33 23H-64L-64 54ZM-64 22H-33V-8.99998H-64L-64 22ZM-64 -9.99998H-33V-41H-64L-64 -9.99998ZM-64 -42H-33L-33 -73H-64V-42ZM-64 -74H-33V-105H-64L-64 -74ZM-64 -106H-33V-137H-64L-64 -106ZM-32 -137V-106H-0.999969V-137H-32ZM3.05176e-05 -137V-106H31V-137H3.05176e-05ZM32 -137V-106H63V-137H32ZM64 -137V-106H95V-137H64ZM96 -137V-106H127V-137H96ZM128 -137V-106H159V-137H128ZM160 -137V-106H191V-137H160ZM192 -137V-106H223V-137H192ZM223 -105H192V-74H223V-105ZM223 -73H192V-42H223V-73ZM223 -41H192V-9.99998H223V-41ZM223 -8.99998H192V22H223V-8.99998ZM223 23H192V54H223V23ZM223 55H192V86H223V55ZM223 87H192V118H223V87ZM191 118V87H160V118H191ZM159 118V87H128V118H159ZM127 118V87H96V118H127ZM95 118V87H64V118H95ZM63 118V87H32V118H63ZM31 118V87H1.52588e-05V118H31ZM-0.999985 118V87H-32V118H-0.999985ZM-32 86H-0.999985L-0.999977 55H-32V86ZM-32 54H-0.999977V23H-32L-32 54ZM-32 22H-0.999977V-8.99998H-32V22ZM-32 -9.99998H-0.999977V-41H-32V-9.99998ZM-32 -42H-0.999977V-73H-32L-32 -42ZM-32 -74H-0.999977L-0.999969 -105H-32V-74ZM3.05176e-05 -105L2.28882e-05 -74H31L31 -105H3.05176e-05ZM32 -105L32 -74H63V-105H32ZM64 -105V-74H95V-105H64ZM96 -105V-74H127V-105H96ZM128 -105V-74H159V-105H128ZM160 -105V-74H191V-105H160ZM191 -73H160V-42H191V-73ZM191 -41H160L160 -9.99998H191V-41ZM191 -8.99998H160V22H191V-8.99998ZM191 23H160V54H191V23ZM191 55H160V86H191V55ZM159 86V55H128V86H159ZM127 86V55H96V86H127ZM95 86V55H64V86H95ZM63 86V55H32L32 86H63ZM31 86L31 55H2.28882e-05L1.52588e-05 86H31ZM2.28882e-05 54H31V23H2.28882e-05V54ZM2.28882e-05 22H31V-8.99998H2.28882e-05V22ZM2.28882e-05 -9.99998H31V-41H2.28882e-05V-9.99998ZM2.28882e-05 -42H31V-73H2.28882e-05V-42ZM32 -73V-42H63V-73H32ZM64 -73V-42H95V-73H64ZM96 -73V-42H127V-73H96ZM128 -73V-42H159V-73H128ZM159 -41H128V-9.99998H159L159 -41ZM159 -8.99998H128L128 22H159V-8.99998ZM159 23H128V54H159V23ZM127 54V23H96V54H127ZM95 54V23H64V54H95ZM63 54V23H32V54H63ZM32 22H63L63 -8.99998H32V22ZM32 -9.99998H63V-41H32V-9.99998ZM64 -41V-9.99998H95L95 -41H64ZM96 -41L96 -9.99998H127V-41H96ZM127 -8.99998H96V22H127L127 -8.99998ZM95 22V-8.99998H64L64 22H95Z" fill="#DBDDEB"/>
<path opacity="0.8" fill-rule="evenodd" clip-rule="evenodd" d="M413 930.5C413 930.776 412.776 931 412.5 931C412.224 931 412 930.776 412 930.5V913H381V930.5C381 930.776 380.776 931 380.5 931C380.224 931 380 930.776 380 930.5V913H349V930.5C349 930.776 348.776 931 348.5 931C348.224 931 348 930.776 348 930.5V913H317V930.5C317 930.776 316.776 931 316.5 931C316.224 931 316 930.776 316 930.5V913H285V930.5C285 930.776 284.776 931 284.5 931C284.224 931 284 930.776 284 930.5V913H253V930.5C253 930.776 252.776 931 252.5 931C252.224 931 252 930.776 252 930.5V913H221V930.5C221 930.776 220.776 931 220.5 931C220.224 931 220 930.776 220 930.5V913H189V930.5C189 930.776 188.776 931 188.5 931C188.224 931 188 930.776 188 930.5V913H157V930.5C157 930.776 156.776 931 156.5 931C156.224 931 156 930.776 156 930.5V913H125V930.5C125 930.776 124.776 931 124.5 931C124.224 931 124 930.776 124 930.5V913H93V930.5C93 930.776 92.7761 931 92.5 931C92.2238 931 92 930.776 92 930.5V913H80.5C80.2238 913 80 912.776 80 912.5C80 912.224 80.2238 912 80.5 912H92V881H80.5C80.2238 881 80 880.776 80 880.5C80 880.224 80.2238 880 80.5 880H92V849H80.5C80.2238 849 80 848.776 80 848.5C80 848.224 80.2238 848 80.5 848H92V817H45.5C45.2238 817 45 816.776 45 816.5C45 816.224 45.2238 816 45.5 816H92V785H80.5C80.2238 785 80 784.776 80 784.5C80 784.224 80.2238 784 80.5 784H92V753H45.5C45.2238 753 45 752.776 45 752.5C45 752.224 45.2238 752 45.5 752H92V721H80.5C80.2238 721 80 720.776 80 720.5C80 720.224 80.2238 720 80.5 720H92V689H45.5C45.2238 689 45 688.776 45 688.5C45 688.224 45.2238 688 45.5 688H92V657H80.5C80.2238 657 80 656.776 80 656.5C80 656.224 80.2238 656 80.5 656H92V625H45.5C45.2238 625 45 624.776 45 624.5C45 624.224 45.2238 624 45.5 624H92V593H80.5C80.2238 593 80 592.776 80 592.5C80 592.224 80.2238 592 80.5 592H92V539.5C92 539.224 92.2239 539 92.5 539C92.7762 539 93 539.224 93 539.5V592H124V579.5C124 579.224 124.224 579 124.5 579C124.776 579 125 579.224 125 579.5V592H156V539.5C156 539.224 156.224 539 156.5 539C156.776 539 157 539.224 157 539.5V592H188V579.5C188 579.224 188.224 579 188.5 579C188.776 579 189 579.224 189 579.5V592H220V539.5C220 539.224 220.224 539 220.5 539C220.776 539 221 539.224 221 539.5V592H252V579.5C252 579.224 252.224 579 252.5 579C252.776 579 253 579.224 253 579.5V592H284V539.5C284 539.224 284.224 539 284.5 539C284.776 539 285 539.224 285 539.5V592H316V579.5C316 579.224 316.224 579 316.5 579C316.776 579 317 579.224 317 579.5V592H348V579.5C348 579.224 348.224 579 348.5 579C348.776 579 349 579.224 349 579.5V592H380V579.5C380 579.224 380.224 579 380.5 579C380.776 579 381 579.224 381 579.5V592H412V579.5C412 579.224 412.224 579 412.5 579C412.776 579 413 579.224 413 579.5V592H431.5C431.776 592 432 592.224 432 592.5C432 592.776 431.776 593 431.5 593H413L413 624H431.5C431.776 624 432 624.224 432 624.5C432 624.776 431.776 625 431.5 625H413L413 656H431.5C431.776 656 432 656.224 432 656.5C432 656.776 431.776 657 431.5 657H413V688H431.5C431.776 688 432 688.224 432 688.5C432 688.776 431.776 689 431.5 689H413L413 720H431.5C431.776 720 432 720.224 432 720.5C432 720.776 431.776 721 431.5 721H413L413 752H431.5C431.776 752 432 752.224 432 752.5C432 752.776 431.776 753 431.5 753H413L413 784H431.5C431.776 784 432 784.224 432 784.5C432 784.776 431.776 785 431.5 785H413V816H431.5C431.776 816 432 816.224 432 816.5C432 816.776 431.776 817 431.5 817H413L413 848H431.5C431.776 848 432 848.224 432 848.5C432 848.776 431.776 849 431.5 849H413L413 880H431.5C431.776 880 432 880.224 432 880.5C432 880.776 431.776 881 431.5 881H413L413 912H431.5C431.776 912 432 912.224 432 912.5C432 912.776 431.776 913 431.5 913H413V930.5ZM412 912L412 881H381L381 912H412ZM380 912L380 881H349V912H380ZM348 912V881H317V912H348ZM316 912V881H285V912H316ZM284 912V881H253V912H284ZM252 912V881H221V912H252ZM220 912V881H189V912H220ZM188 912V881H157V912H188ZM156 912V881H125V912H156ZM124 912V881H93V912H124ZM93 880H124V849H93V880ZM93 848H124V817H93V848ZM93 816H124V785H93V816ZM93 784H124V753H93V784ZM93 752H124V721H93V752ZM93 720H124V689H93V720ZM93 688H124V657H93V688ZM93 656H124V625H93V656ZM93 624H124V593H93V624ZM125 593V624H156V593H125ZM157 593V624H188V593H157ZM189 593V624H220V593H189ZM221 593V624H252V593H221ZM253 593V624H284V593H253ZM285 593V624H316V593H285ZM317 593V624H348V593H317ZM349 593V624H380L380 593H349ZM381 593L381 624H412L412 593H381ZM412 625H381V656H412L412 625ZM412 657H381V688H412V657ZM412 689H381L381 720H412L412 689ZM412 721H381V752H412L412 721ZM412 753H381V784H412L412 753ZM412 785H381L381 816H412V785ZM412 817H381V848H412L412 817ZM412 849H381V880H412L412 849ZM380 880V849H349V880H380ZM348 880V849H317V880H348ZM316 880V849H285V880H316ZM284 880V849H253V880H284ZM252 880V849H221V880H252ZM220 880V849H189V880H220ZM188 880V849H157V880H188ZM156 880V849H125V880H156ZM125 848H156V817H125V848ZM125 816H156V785H125V816ZM125 784H156V753H125V784ZM125 752H156V721H125V752ZM125 720H156V689H125V720ZM125 688H156V657H125V688ZM125 656H156V625H125V656ZM157 625V656H188V625H157ZM189 625V656H220V625H189ZM221 625V656H252V625H221ZM253 625V656H284V625H253ZM285 625V656H316V625H285ZM317 625V656H348V625H317ZM349 625V656H380V625H349ZM380 657H349L349 688H380V657ZM380 689H349V720H380L380 689ZM380 721H349V752H380V721ZM380 753H349V784H380V753ZM380 785H349V816H380L380 785ZM380 817H349L349 848H380V817ZM348 848L348 817H317L317 848H348ZM316 848L316 817H285V848H316ZM284 848V817H253V848H284ZM252 848V817H221V848H252ZM220 848V817H189V848H220ZM188 848V817H157V848H188ZM157 816H188V785H157V816ZM157 784H188L188 753H157V784ZM157 752H188V721H157V752ZM157 720H188V689H157V720ZM157 688H188V657H157V688ZM189 657V688H220V657H189ZM221 657V688H252V657H221ZM253 657V688H284V657H253ZM285 657V688H316L316 657H285ZM317 657L317 688H348L348 657H317ZM348 689H317V720H348V689ZM348 721H317V752H348V721ZM348 753H317V784H348V753ZM348 785H317V816H348V785ZM316 816V785H285V816H316ZM284 816V785H253V816H284ZM252 816V785H221V816H252ZM220 816V785H189V816H220ZM189 784H220V753H189L189 784ZM189 752H220L220 721H189V752ZM189 720H220V689H189V720ZM221 689V720H252V689H221ZM253 689V720H284V689H253ZM285 689V720H316V689H285ZM316 721H285L285 752H316V721ZM316 753H285V784H316V753ZM284 784V753H253L253 784H284ZM252 784L252 753H221V784H252ZM221 752H252V721H221L221 752ZM253 721V752H284L284 721H253Z" fill="#DBDDEB"/>
<g filter="url(#filter0_f_994_4262)">
<rect y="103" width="375" height="607" fill="url(#paint0_linear_994_4262)"/>
</g>
<circle cx="346" cy="104" r="11" fill="#F7D2BD"/>
<circle cx="132" cy="535" r="8" fill="#DBCEF4"/>
<circle cx="57.5" cy="795.5" r="10.5" fill="#B0D9E4"/>
<circle cx="303.5" cy="330.5" r="8.5" fill="#CDE8BF"/>
<circle cx="17" cy="58" r="7" fill="#FFC4E5"/>
<circle cx="284" cy="737" r="7" fill="#F7D2BD"/>
<circle cx="94" cy="230" r="6" fill="#F1E99E"/>
<g opacity="0.2">
<rect x="64" y="23" width="31" height="31" fill="url(#paint1_linear_994_4262)"/>
<rect x="64" y="23" width="31" height="31" fill="url(#paint2_linear_994_4262)"/>
<rect x="32" y="-9" width="31" height="31" fill="url(#paint3_linear_994_4262)"/>
<rect x="32" y="-9" width="31" height="31" fill="url(#paint4_linear_994_4262)"/>
<rect x="96" y="-9" width="31" height="31" fill="url(#paint5_linear_994_4262)"/>
<rect x="96" y="-9" width="31" height="31" fill="url(#paint6_linear_994_4262)"/>
<rect x="160" y="-9" width="31" height="31" fill="url(#paint7_linear_994_4262)"/>
<rect x="160" y="-9" width="31" height="31" fill="url(#paint8_linear_994_4262)"/>
<rect x="224" y="-9" width="31" height="31" fill="url(#paint9_linear_994_4262)"/>
<rect x="224" y="-9" width="31" height="31" fill="url(#paint10_linear_994_4262)"/>
<rect y="23" width="31" height="31" fill="url(#paint11_linear_994_4262)"/>
<rect y="23" width="31" height="31" fill="url(#paint12_linear_994_4262)"/>
<rect width="31" height="31" transform="matrix(-1 0 0 1 159 23)" fill="url(#paint13_linear_994_4262)"/>
<rect width="31" height="31" transform="matrix(-1 0 0 1 159 23)" fill="url(#paint14_linear_994_4262)"/>
<rect width="31" height="31" transform="matrix(-1 0 0 1 223 23)" fill="url(#paint15_linear_994_4262)"/>
<rect width="31" height="31" transform="matrix(-1 0 0 1 223 23)" fill="url(#paint16_linear_994_4262)"/>
<rect x="127" y="86" width="31" height="31" transform="rotate(180 127 86)" fill="url(#paint17_linear_994_4262)"/>
<rect x="127" y="86" width="31" height="31" transform="rotate(180 127 86)" fill="url(#paint18_linear_994_4262)"/>
<rect x="63" y="86" width="31" height="31" transform="rotate(180 63 86)" fill="url(#paint19_linear_994_4262)"/>
<rect x="63" y="86" width="31" height="31" transform="rotate(180 63 86)" fill="url(#paint20_linear_994_4262)"/>
<rect x="63" y="150" width="31" height="31" transform="rotate(180 63 150)" fill="url(#paint21_linear_994_4262)"/>
<rect x="63" y="150" width="31" height="31" transform="rotate(180 63 150)" fill="url(#paint22_linear_994_4262)"/>
<rect x="127" y="150" width="31" height="31" transform="rotate(180 127 150)" fill="url(#paint23_linear_994_4262)"/>
<rect x="127" y="150" width="31" height="31" transform="rotate(180 127 150)" fill="url(#paint24_linear_994_4262)"/>
<rect x="191" y="150" width="31" height="31" transform="rotate(180 191 150)" fill="url(#paint25_linear_994_4262)"/>
<rect x="191" y="150" width="31" height="31" transform="rotate(180 191 150)" fill="url(#paint26_linear_994_4262)"/>
<rect x="255" y="150" width="31" height="31" transform="rotate(180 255 150)" fill="url(#paint27_linear_994_4262)"/>
<rect x="255" y="150" width="31" height="31" transform="rotate(180 255 150)" fill="url(#paint28_linear_994_4262)"/>
<rect x="191" y="86" width="31" height="31" transform="rotate(180 191 86)" fill="url(#paint29_linear_994_4262)"/>
<rect x="191" y="86" width="31" height="31" transform="rotate(180 191 86)" fill="url(#paint30_linear_994_4262)"/>
<rect x="255" y="86" width="31" height="31" transform="rotate(180 255 86)" fill="url(#paint31_linear_994_4262)"/>
<rect x="255" y="86" width="31" height="31" transform="rotate(180 255 86)" fill="url(#paint32_linear_994_4262)"/>
<rect x="159" y="118" width="31" height="31" transform="rotate(180 159 118)" fill="url(#paint33_linear_994_4262)"/>
<rect x="159" y="118" width="31" height="31" transform="rotate(180 159 118)" fill="url(#paint34_linear_994_4262)"/>
<rect x="95" y="118" width="31" height="31" transform="rotate(180 95 118)" fill="url(#paint35_linear_994_4262)"/>
<rect x="95" y="118" width="31" height="31" transform="rotate(180 95 118)" fill="url(#paint36_linear_994_4262)"/>
<rect x="31" y="118" width="31" height="31" transform="rotate(180 31 118)" fill="url(#paint37_linear_994_4262)"/>
<rect x="31" y="118" width="31" height="31" transform="rotate(180 31 118)" fill="url(#paint38_linear_994_4262)"/>
<rect x="223" y="118" width="31" height="31" transform="rotate(180 223 118)" fill="url(#paint39_linear_994_4262)"/>
<rect x="223" y="118" width="31" height="31" transform="rotate(180 223 118)" fill="url(#paint40_linear_994_4262)"/>
</g>
<g opacity="0.2">
<rect x="189" y="689" width="31" height="31" fill="url(#paint41_linear_994_4262)"/>
<rect x="189" y="689" width="31" height="31" fill="url(#paint42_linear_994_4262)"/>
<rect x="157" y="657" width="31" height="31" fill="url(#paint43_linear_994_4262)"/>
<rect x="157" y="657" width="31" height="31" fill="url(#paint44_linear_994_4262)"/>
<rect x="93" y="657" width="31" height="31" fill="url(#paint45_linear_994_4262)"/>
<rect x="93" y="657" width="31" height="31" fill="url(#paint46_linear_994_4262)"/>
<rect x="93" y="593" width="31" height="31" fill="url(#paint47_linear_994_4262)"/>
<rect x="93" y="593" width="31" height="31" fill="url(#paint48_linear_994_4262)"/>
<rect x="157" y="593" width="31" height="31" fill="url(#paint49_linear_994_4262)"/>
<rect x="157" y="593" width="31" height="31" fill="url(#paint50_linear_994_4262)"/>
<rect x="221" y="593" width="31" height="31" fill="url(#paint51_linear_994_4262)"/>
<rect x="221" y="593" width="31" height="31" fill="url(#paint52_linear_994_4262)"/>
<rect x="285" y="593" width="31" height="31" fill="url(#paint53_linear_994_4262)"/>
<rect x="285" y="593" width="31" height="31" fill="url(#paint54_linear_994_4262)"/>
<rect x="349" y="593" width="31" height="31" fill="url(#paint55_linear_994_4262)"/>
<rect x="349" y="593" width="31" height="31" fill="url(#paint56_linear_994_4262)"/>
<rect x="221" y="657" width="31" height="31" fill="url(#paint57_linear_994_4262)"/>
<rect x="221" y="657" width="31" height="31" fill="url(#paint58_linear_994_4262)"/>
<rect x="285" y="657" width="31" height="31" fill="url(#paint59_linear_994_4262)"/>
<rect x="285" y="657" width="31" height="31" fill="url(#paint60_linear_994_4262)"/>
<rect x="349" y="657" width="31" height="31" fill="url(#paint61_linear_994_4262)"/>
<rect x="349" y="657" width="31" height="31" fill="url(#paint62_linear_994_4262)"/>
<rect x="125" y="689" width="31" height="31" fill="url(#paint63_linear_994_4262)"/>
<rect x="125" y="689" width="31" height="31" fill="url(#paint64_linear_994_4262)"/>
<rect width="31" height="31" transform="matrix(-1 0 0 1 285 689)" fill="url(#paint65_linear_994_4262)"/>
<rect width="31" height="31" transform="matrix(-1 0 0 1 285 689)" fill="url(#paint66_linear_994_4262)"/>
<rect width="31" height="31" transform="matrix(-1 0 0 1 349 689)" fill="url(#paint67_linear_994_4262)"/>
<rect width="31" height="31" transform="matrix(-1 0 0 1 349 689)" fill="url(#paint68_linear_994_4262)"/>
<rect x="253" y="752" width="31" height="31" transform="rotate(180 253 752)" fill="url(#paint69_linear_994_4262)"/>
<rect x="253" y="752" width="31" height="31" transform="rotate(180 253 752)" fill="url(#paint70_linear_994_4262)"/>
<rect x="188" y="752" width="31" height="31" transform="rotate(180 188 752)" fill="url(#paint71_linear_994_4262)"/>
<rect x="188" y="752" width="31" height="31" transform="rotate(180 188 752)" fill="url(#paint72_linear_994_4262)"/>
<rect x="156" y="656" width="31" height="31" transform="rotate(180 156 656)" fill="url(#paint73_linear_994_4262)"/>
<rect x="156" y="656" width="31" height="31" transform="rotate(180 156 656)" fill="url(#paint74_linear_994_4262)"/>
<rect x="220" y="656" width="31" height="31" transform="rotate(180 220 656)" fill="url(#paint75_linear_994_4262)"/>
<rect x="220" y="656" width="31" height="31" transform="rotate(180 220 656)" fill="url(#paint76_linear_994_4262)"/>
<rect x="284" y="656" width="31" height="31" transform="rotate(180 284 656)" fill="url(#paint77_linear_994_4262)"/>
<rect x="284" y="656" width="31" height="31" transform="rotate(180 284 656)" fill="url(#paint78_linear_994_4262)"/>
<rect x="348" y="656" width="31" height="31" transform="rotate(180 348 656)" fill="url(#paint79_linear_994_4262)"/>
<rect x="348" y="656" width="31" height="31" transform="rotate(180 348 656)" fill="url(#paint80_linear_994_4262)"/>
<rect x="189" y="816" width="31" height="31" transform="rotate(180 189 816)" fill="url(#paint81_linear_994_4262)"/>
<rect x="189" y="816" width="31" height="31" transform="rotate(180 189 816)" fill="url(#paint82_linear_994_4262)"/>
<rect x="124" y="816" width="31" height="31" transform="rotate(180 124 816)" fill="url(#paint83_linear_994_4262)"/>
<rect x="124" y="816" width="31" height="31" transform="rotate(180 124 816)" fill="url(#paint84_linear_994_4262)"/>
<rect x="252" y="816" width="31" height="31" transform="rotate(180 252 816)" fill="url(#paint85_linear_994_4262)"/>
<rect x="252" y="816" width="31" height="31" transform="rotate(180 252 816)" fill="url(#paint86_linear_994_4262)"/>
<rect x="317" y="816" width="31" height="31" transform="rotate(180 317 816)" fill="url(#paint87_linear_994_4262)"/>
<rect x="317" y="816" width="31" height="31" transform="rotate(180 317 816)" fill="url(#paint88_linear_994_4262)"/>
<rect x="380" y="816" width="31" height="31" transform="rotate(180 380 816)" fill="url(#paint89_linear_994_4262)"/>
<rect x="380" y="816" width="31" height="31" transform="rotate(180 380 816)" fill="url(#paint90_linear_994_4262)"/>
<rect x="316" y="752" width="31" height="31" transform="rotate(180 316 752)" fill="url(#paint91_linear_994_4262)"/>
<rect x="316" y="752" width="31" height="31" transform="rotate(180 316 752)" fill="url(#paint92_linear_994_4262)"/>
<rect x="380" y="752" width="31" height="31" transform="rotate(180 380 752)" fill="url(#paint93_linear_994_4262)"/>
<rect x="380" y="752" width="31" height="31" transform="rotate(180 380 752)" fill="url(#paint94_linear_994_4262)"/>
<rect x="284" y="784" width="31" height="31" transform="rotate(180 284 784)" fill="url(#paint95_linear_994_4262)"/>
<rect x="284" y="784" width="31" height="31" transform="rotate(180 284 784)" fill="url(#paint96_linear_994_4262)"/>
<rect x="220" y="784" width="31" height="31" transform="rotate(180 220 784)" fill="url(#paint97_linear_994_4262)"/>
<rect x="220" y="784" width="31" height="31" transform="rotate(180 220 784)" fill="url(#paint98_linear_994_4262)"/>
<rect x="156" y="784" width="31" height="31" transform="rotate(180 156 784)" fill="url(#paint99_linear_994_4262)"/>
<rect x="156" y="784" width="31" height="31" transform="rotate(180 156 784)" fill="url(#paint100_linear_994_4262)"/>
<rect x="348" y="784" width="31" height="31" transform="rotate(180 348 784)" fill="url(#paint101_linear_994_4262)"/>
<rect x="348" y="784" width="31" height="31" transform="rotate(180 348 784)" fill="url(#paint102_linear_994_4262)"/>
</g>
</g>
<defs>
<filter id="filter0_f_994_4262" x="-54" y="49" width="483" height="715" filterUnits="userSpaceOnUse" color-interpolation-filters="sRGB">
<feFlood flood-opacity="0" result="BackgroundImageFix"/>
<feBlend mode="normal" in="SourceGraphic" in2="BackgroundImageFix" result="shape"/>
<feGaussianBlur stdDeviation="27" result="effect1_foregroundBlur_994_4262"/>
</filter>
<linearGradient id="paint0_linear_994_4262" x1="187.5" y1="46.8783" x2="187.5" y2="748.399" gradientUnits="userSpaceOnUse">
<stop stop-color="white" stop-opacity="0"/>
<stop offset="0.515046" stop-color="white"/>
<stop offset="1" stop-color="white" stop-opacity="0"/>
</linearGradient>
<linearGradient id="paint1_linear_994_4262" x1="67.5" y1="25" x2="79.5" y2="54" gradientUnits="userSpaceOnUse">
<stop stop-color="#DBDDEB" stop-opacity="0.71"/>
<stop offset="1" stop-color="#DBDDEB" stop-opacity="0"/>
</linearGradient>
<linearGradient id="paint2_linear_994_4262" x1="67.5" y1="25" x2="79.5" y2="54" gradientUnits="userSpaceOnUse">
<stop stop-color="#DBDDEB" stop-opacity="0.71"/>
<stop offset="1" stop-color="#DBDDEB" stop-opacity="0"/>
</linearGradient>
<linearGradient id="paint3_linear_994_4262" x1="35.5" y1="-7" x2="47.5" y2="22" gradientUnits="userSpaceOnUse">
<stop stop-color="#DBDDEB" stop-opacity="0.71"/>
<stop offset="1" stop-color="#DBDDEB" stop-opacity="0"/>
</linearGradient>
<linearGradient id="paint4_linear_994_4262" x1="35.5" y1="-7" x2="47.5" y2="22" gradientUnits="userSpaceOnUse">
<stop stop-color="#DBDDEB" stop-opacity="0.71"/>
<stop offset="1" stop-color="#DBDDEB" stop-opacity="0"/>
</linearGradient>
<linearGradient id="paint5_linear_994_4262" x1="99.5" y1="-7" x2="111.5" y2="22" gradientUnits="userSpaceOnUse">
<stop stop-color="#DBDDEB" stop-opacity="0.71"/>
<stop offset="1" stop-color="#DBDDEB" stop-opacity="0"/>
</linearGradient>
<linearGradient id="paint6_linear_994_4262" x1="99.5" y1="-7" x2="111.5" y2="22" gradientUnits="userSpaceOnUse">
<stop stop-color="#DBDDEB" stop-opacity="0.71"/>
<stop offset="1" stop-color="#DBDDEB" stop-opacity="0"/>
</linearGradient>
<linearGradient id="paint7_linear_994_4262" x1="163.5" y1="-7" x2="175.5" y2="22" gradientUnits="userSpaceOnUse">
<stop stop-color="#DBDDEB" stop-opacity="0.71"/>
<stop offset="1" stop-color="#DBDDEB" stop-opacity="0"/>
</linearGradient>
<linearGradient id="paint8_linear_994_4262" x1="163.5" y1="-7" x2="175.5" y2="22" gradientUnits="userSpaceOnUse">
<stop stop-color="#DBDDEB" stop-opacity="0.71"/>
<stop offset="1" stop-color="#DBDDEB" stop-opacity="0"/>
</linearGradient>
<linearGradient id="paint9_linear_994_4262" x1="227.5" y1="-7" x2="239.5" y2="22" gradientUnits="userSpaceOnUse">
<stop stop-color="#DBDDEB" stop-opacity="0.71"/>
<stop offset="1" stop-color="#DBDDEB" stop-opacity="0"/>
</linearGradient>
<linearGradient id="paint10_linear_994_4262" x1="227.5" y1="-7" x2="239.5" y2="22" gradientUnits="userSpaceOnUse">
<stop stop-color="#DBDDEB" stop-opacity="0.71"/>
<stop offset="1" stop-color="#DBDDEB" stop-opacity="0"/>
</linearGradient>
<linearGradient id="paint11_linear_994_4262" x1="3.5" y1="25" x2="15.5" y2="54" gradientUnits="userSpaceOnUse">
<stop stop-color="#DBDDEB" stop-opacity="0.71"/>
<stop offset="1" stop-color="#DBDDEB" stop-opacity="0"/>
</linearGradient>
<linearGradient id="paint12_linear_994_4262" x1="3.5" y1="25" x2="15.5" y2="54" gradientUnits="userSpaceOnUse">
<stop stop-color="#DBDDEB" stop-opacity="0.71"/>
<stop offset="1" stop-color="#DBDDEB" stop-opacity="0"/>
</linearGradient>
<linearGradient id="paint13_linear_994_4262" x1="3.5" y1="2" x2="15.5" y2="31" gradientUnits="userSpaceOnUse">
<stop stop-color="#DBDDEB" stop-opacity="0.71"/>
<stop offset="1" stop-color="#DBDDEB" stop-opacity="0"/>
</linearGradient>
<linearGradient id="paint14_linear_994_4262" x1="3.5" y1="2" x2="15.5" y2="31" gradientUnits="userSpaceOnUse">
<stop stop-color="#DBDDEB" stop-opacity="0.71"/>
<stop offset="1" stop-color="#DBDDEB" stop-opacity="0"/>
</linearGradient>
<linearGradient id="paint15_linear_994_4262" x1="3.5" y1="2" x2="15.5" y2="31" gradientUnits="userSpaceOnUse">
<stop stop-color="#DBDDEB" stop-opacity="0.71"/>
<stop offset="1" stop-color="#DBDDEB" stop-opacity="0"/>
</linearGradient>
<linearGradient id="paint16_linear_994_4262" x1="3.5" y1="2" x2="15.5" y2="31" gradientUnits="userSpaceOnUse">
<stop stop-color="#DBDDEB" stop-opacity="0.71"/>
<stop offset="1" stop-color="#DBDDEB" stop-opacity="0"/>
</linearGradient>
<linearGradient id="paint17_linear_994_4262" x1="130.5" y1="88" x2="142.5" y2="117" gradientUnits="userSpaceOnUse">
<stop stop-color="#DBDDEB" stop-opacity="0.71"/>
<stop offset="1" stop-color="#DBDDEB" stop-opacity="0"/>
</linearGradient>
<linearGradient id="paint18_linear_994_4262" x1="130.5" y1="88" x2="142.5" y2="117" gradientUnits="userSpaceOnUse">
<stop stop-color="#DBDDEB" stop-opacity="0.71"/>
<stop offset="1" stop-color="#DBDDEB" stop-opacity="0"/>
</linearGradient>
<linearGradient id="paint19_linear_994_4262" x1="66.5" y1="88" x2="78.5" y2="117" gradientUnits="userSpaceOnUse">
<stop stop-color="#DBDDEB" stop-opacity="0.71"/>
<stop offset="1" stop-color="#DBDDEB" stop-opacity="0"/>
</linearGradient>
<linearGradient id="paint20_linear_994_4262" x1="66.5" y1="88" x2="78.5" y2="117" gradientUnits="userSpaceOnUse">
<stop stop-color="#DBDDEB" stop-opacity="0.71"/>
<stop offset="1" stop-color="#DBDDEB" stop-opacity="0"/>
</linearGradient>
<linearGradient id="paint21_linear_994_4262" x1="66.5" y1="152" x2="78.5" y2="181" gradientUnits="userSpaceOnUse">
<stop stop-color="#DBDDEB" stop-opacity="0.71"/>
<stop offset="1" stop-color="#DBDDEB" stop-opacity="0"/>
</linearGradient>
<linearGradient id="paint22_linear_994_4262" x1="66.5" y1="152" x2="78.5" y2="181" gradientUnits="userSpaceOnUse">
<stop stop-color="#DBDDEB" stop-opacity="0.71"/>
<stop offset="1" stop-color="#DBDDEB" stop-opacity="0"/>
</linearGradient>
<linearGradient id="paint23_linear_994_4262" x1="130.5" y1="152" x2="142.5" y2="181" gradientUnits="userSpaceOnUse">
<stop stop-color="#DBDDEB" stop-opacity="0.71"/>
<stop offset="1" stop-color="#DBDDEB" stop-opacity="0"/>
</linearGradient>
<linearGradient id="paint24_linear_994_4262" x1="130.5" y1="152" x2="142.5" y2="181" gradientUnits="userSpaceOnUse">
<stop stop-color="#DBDDEB" stop-opacity="0.71"/>
<stop offset="1" stop-color="#DBDDEB" stop-opacity="0"/>
</linearGradient>
<linearGradient id="paint25_linear_994_4262" x1="194.5" y1="152" x2="206.5" y2="181" gradientUnits="userSpaceOnUse">
<stop stop-color="#DBDDEB" stop-opacity="0.71"/>
<stop offset="1" stop-color="#DBDDEB" stop-opacity="0"/>
</linearGradient>
<linearGradient id="paint26_linear_994_4262" x1="194.5" y1="152" x2="206.5" y2="181" gradientUnits="userSpaceOnUse">
<stop stop-color="#DBDDEB" stop-opacity="0.71"/>
<stop offset="1" stop-color="#DBDDEB" stop-opacity="0"/>
</linearGradient>
<linearGradient id="paint27_linear_994_4262" x1="258.5" y1="152" x2="270.5" y2="181" gradientUnits="userSpaceOnUse">
<stop stop-color="#DBDDEB" stop-opacity="0.71"/>
<stop offset="1" stop-color="#DBDDEB" stop-opacity="0"/>
</linearGradient>
<linearGradient id="paint28_linear_994_4262" x1="258.5" y1="152" x2="270.5" y2="181" gradientUnits="userSpaceOnUse">
<stop stop-color="#DBDDEB" stop-opacity="0.71"/>
<stop offset="1" stop-color="#DBDDEB" stop-opacity="0"/>
</linearGradient>
<linearGradient id="paint29_linear_994_4262" x1="194.5" y1="88" x2="206.5" y2="117" gradientUnits="userSpaceOnUse">
<stop stop-color="#DBDDEB" stop-opacity="0.71"/>
<stop offset="1" stop-color="#DBDDEB" stop-opacity="0"/>
</linearGradient>
<linearGradient id="paint30_linear_994_4262" x1="194.5" y1="88" x2="206.5" y2="117" gradientUnits="userSpaceOnUse">
<stop stop-color="#DBDDEB" stop-opacity="0.71"/>
<stop offset="1" stop-color="#DBDDEB" stop-opacity="0"/>
</linearGradient>
<linearGradient id="paint31_linear_994_4262" x1="258.5" y1="88" x2="270.5" y2="117" gradientUnits="userSpaceOnUse">
<stop stop-color="#DBDDEB" stop-opacity="0.71"/>
<stop offset="1" stop-color="#DBDDEB" stop-opacity="0"/>
</linearGradient>
<linearGradient id="paint32_linear_994_4262" x1="258.5" y1="88" x2="270.5" y2="117" gradientUnits="userSpaceOnUse">
<stop stop-color="#DBDDEB" stop-opacity="0.71"/>
<stop offset="1" stop-color="#DBDDEB" stop-opacity="0"/>
</linearGradient>
<linearGradient id="paint33_linear_994_4262" x1="162.5" y1="120" x2="174.5" y2="149" gradientUnits="userSpaceOnUse">
<stop stop-color="#DBDDEB" stop-opacity="0.71"/>
<stop offset="1" stop-color="#DBDDEB" stop-opacity="0"/>
</linearGradient>
<linearGradient id="paint34_linear_994_4262" x1="162.5" y1="120" x2="174.5" y2="149" gradientUnits="userSpaceOnUse">
<stop stop-color="#DBDDEB" stop-opacity="0.71"/>
<stop offset="1" stop-color="#DBDDEB" stop-opacity="0"/>
</linearGradient>
<linearGradient id="paint35_linear_994_4262" x1="98.5" y1="120" x2="110.5" y2="149" gradientUnits="userSpaceOnUse">
<stop stop-color="#DBDDEB" stop-opacity="0.71"/>
<stop offset="1" stop-color="#DBDDEB" stop-opacity="0"/>
</linearGradient>
<linearGradient id="paint36_linear_994_4262" x1="98.5" y1="120" x2="110.5" y2="149" gradientUnits="userSpaceOnUse">
<stop stop-color="#DBDDEB" stop-opacity="0.71"/>
<stop offset="1" stop-color="#DBDDEB" stop-opacity="0"/>
</linearGradient>
<linearGradient id="paint37_linear_994_4262" x1="34.5" y1="120" x2="46.5" y2="149" gradientUnits="userSpaceOnUse">
<stop stop-color="#DBDDEB" stop-opacity="0.71"/>
<stop offset="1" stop-color="#DBDDEB" stop-opacity="0"/>
</linearGradient>
<linearGradient id="paint38_linear_994_4262" x1="34.5" y1="120" x2="46.5" y2="149" gradientUnits="userSpaceOnUse">
<stop stop-color="#DBDDEB" stop-opacity="0.71"/>
<stop offset="1" stop-color="#DBDDEB" stop-opacity="0"/>
</linearGradient>
<linearGradient id="paint39_linear_994_4262" x1="226.5" y1="120" x2="238.5" y2="149" gradientUnits="userSpaceOnUse">
<stop stop-color="#DBDDEB" stop-opacity="0.71"/>
<stop offset="1" stop-color="#DBDDEB" stop-opacity="0"/>
</linearGradient>
<linearGradient id="paint40_linear_994_4262" x1="226.5" y1="120" x2="238.5" y2="149" gradientUnits="userSpaceOnUse">
<stop stop-color="#DBDDEB" stop-opacity="0.71"/>
<stop offset="1" stop-color="#DBDDEB" stop-opacity="0"/>
</linearGradient>
<linearGradient id="paint41_linear_994_4262" x1="192.5" y1="691" x2="204.5" y2="720" gradientUnits="userSpaceOnUse">
<stop stop-color="#DBDDEB" stop-opacity="0.71"/>
<stop offset="1" stop-color="#DBDDEB" stop-opacity="0"/>
</linearGradient>
<linearGradient id="paint42_linear_994_4262" x1="192.5" y1="691" x2="204.5" y2="720" gradientUnits="userSpaceOnUse">
<stop stop-color="#DBDDEB" stop-opacity="0.71"/>
<stop offset="1" stop-color="#DBDDEB" stop-opacity="0"/>
</linearGradient>
<linearGradient id="paint43_linear_994_4262" x1="160.5" y1="659" x2="172.5" y2="688" gradientUnits="userSpaceOnUse">
<stop stop-color="#DBDDEB" stop-opacity="0.71"/>
<stop offset="1" stop-color="#DBDDEB" stop-opacity="0"/>
</linearGradient>
<linearGradient id="paint44_linear_994_4262" x1="160.5" y1="659" x2="172.5" y2="688" gradientUnits="userSpaceOnUse">
<stop stop-color="#DBDDEB" stop-opacity="0.71"/>
<stop offset="1" stop-color="#DBDDEB" stop-opacity="0"/>
</linearGradient>
<linearGradient id="paint45_linear_994_4262" x1="96.5" y1="659" x2="108.5" y2="688" gradientUnits="userSpaceOnUse">
<stop stop-color="#DBDDEB" stop-opacity="0.71"/>
<stop offset="1" stop-color="#DBDDEB" stop-opacity="0"/>
</linearGradient>
<linearGradient id="paint46_linear_994_4262" x1="96.5" y1="659" x2="108.5" y2="688" gradientUnits="userSpaceOnUse">
<stop stop-color="#DBDDEB" stop-opacity="0.71"/>
<stop offset="1" stop-color="#DBDDEB" stop-opacity="0"/>
</linearGradient>
<linearGradient id="paint47_linear_994_4262" x1="96.5" y1="595" x2="108.5" y2="624" gradientUnits="userSpaceOnUse">
<stop stop-color="#DBDDEB" stop-opacity="0.71"/>
<stop offset="1" stop-color="#DBDDEB" stop-opacity="0"/>
</linearGradient>
<linearGradient id="paint48_linear_994_4262" x1="96.5" y1="595" x2="108.5" y2="624" gradientUnits="userSpaceOnUse">
<stop stop-color="#DBDDEB" stop-opacity="0.71"/>
<stop offset="1" stop-color="#DBDDEB" stop-opacity="0"/>
</linearGradient>
<linearGradient id="paint49_linear_994_4262" x1="160.5" y1="595" x2="172.5" y2="624" gradientUnits="userSpaceOnUse">
<stop stop-color="#DBDDEB" stop-opacity="0.71"/>
<stop offset="1" stop-color="#DBDDEB" stop-opacity="0"/>
</linearGradient>
<linearGradient id="paint50_linear_994_4262" x1="160.5" y1="595" x2="172.5" y2="624" gradientUnits="userSpaceOnUse">
<stop stop-color="#DBDDEB" stop-opacity="0.71"/>
<stop offset="1" stop-color="#DBDDEB" stop-opacity="0"/>
</linearGradient>
<linearGradient id="paint51_linear_994_4262" x1="224.5" y1="595" x2="236.5" y2="624" gradientUnits="userSpaceOnUse">
<stop stop-color="#DBDDEB" stop-opacity="0.71"/>
<stop offset="1" stop-color="#DBDDEB" stop-opacity="0"/>
</linearGradient>
<linearGradient id="paint52_linear_994_4262" x1="224.5" y1="595" x2="236.5" y2="624" gradientUnits="userSpaceOnUse">
<stop stop-color="#DBDDEB" stop-opacity="0.71"/>
<stop offset="1" stop-color="#DBDDEB" stop-opacity="0"/>
</linearGradient>
<linearGradient id="paint53_linear_994_4262" x1="288.5" y1="595" x2="300.5" y2="624" gradientUnits="userSpaceOnUse">
<stop stop-color="#DBDDEB" stop-opacity="0.71"/>
<stop offset="1" stop-color="#DBDDEB" stop-opacity="0"/>
</linearGradient>
<linearGradient id="paint54_linear_994_4262" x1="288.5" y1="595" x2="300.5" y2="624" gradientUnits="userSpaceOnUse">
<stop stop-color="#DBDDEB" stop-opacity="0.71"/>
<stop offset="1" stop-color="#DBDDEB" stop-opacity="0"/>
</linearGradient>
<linearGradient id="paint55_linear_994_4262" x1="352.5" y1="595" x2="364.5" y2="624" gradientUnits="userSpaceOnUse">
<stop stop-color="#DBDDEB" stop-opacity="0.71"/>
<stop offset="1" stop-color="#DBDDEB" stop-opacity="0"/>
</linearGradient>
<linearGradient id="paint56_linear_994_4262" x1="352.5" y1="595" x2="364.5" y2="624" gradientUnits="userSpaceOnUse">
<stop stop-color="#DBDDEB" stop-opacity="0.71"/>
<stop offset="1" stop-color="#DBDDEB" stop-opacity="0"/>
</linearGradient>
<linearGradient id="paint57_linear_994_4262" x1="224.5" y1="659" x2="236.5" y2="688" gradientUnits="userSpaceOnUse">
<stop stop-color="#DBDDEB" stop-opacity="0.71"/>
<stop offset="1" stop-color="#DBDDEB" stop-opacity="0"/>
</linearGradient>
<linearGradient id="paint58_linear_994_4262" x1="224.5" y1="659" x2="236.5" y2="688" gradientUnits="userSpaceOnUse">
<stop stop-color="#DBDDEB" stop-opacity="0.71"/>
<stop offset="1" stop-color="#DBDDEB" stop-opacity="0"/>
</linearGradient>
<linearGradient id="paint59_linear_994_4262" x1="288.5" y1="659" x2="300.5" y2="688" gradientUnits="userSpaceOnUse">
<stop stop-color="#DBDDEB" stop-opacity="0.71"/>
<stop offset="1" stop-color="#DBDDEB" stop-opacity="0"/>
</linearGradient>
<linearGradient id="paint60_linear_994_4262" x1="288.5" y1="659" x2="300.5" y2="688" gradientUnits="userSpaceOnUse">
<stop stop-color="#DBDDEB" stop-opacity="0.71"/>
<stop offset="1" stop-color="#DBDDEB" stop-opacity="0"/>
</linearGradient>
<linearGradient id="paint61_linear_994_4262" x1="352.5" y1="659" x2="364.5" y2="688" gradientUnits="userSpaceOnUse">
<stop stop-color="#DBDDEB" stop-opacity="0.71"/>
<stop offset="1" stop-color="#DBDDEB" stop-opacity="0"/>
</linearGradient>
<linearGradient id="paint62_linear_994_4262" x1="352.5" y1="659" x2="364.5" y2="688" gradientUnits="userSpaceOnUse">
<stop stop-color="#DBDDEB" stop-opacity="0.71"/>
<stop offset="1" stop-color="#DBDDEB" stop-opacity="0"/>
</linearGradient>
<linearGradient id="paint63_linear_994_4262" x1="128.5" y1="691" x2="140.5" y2="720" gradientUnits="userSpaceOnUse">
<stop stop-color="#DBDDEB" stop-opacity="0.71"/>
<stop offset="1" stop-color="#DBDDEB" stop-opacity="0"/>
</linearGradient>
<linearGradient id="paint64_linear_994_4262" x1="128.5" y1="691" x2="140.5" y2="720" gradientUnits="userSpaceOnUse">
<stop stop-color="#DBDDEB" stop-opacity="0.71"/>
<stop offset="1" stop-color="#DBDDEB" stop-opacity="0"/>
</linearGradient>
<linearGradient id="paint65_linear_994_4262" x1="3.5" y1="2" x2="15.5" y2="31" gradientUnits="userSpaceOnUse">
<stop stop-color="#DBDDEB" stop-opacity="0.71"/>
<stop offset="1" stop-color="#DBDDEB" stop-opacity="0"/>
</linearGradient>
<linearGradient id="paint66_linear_994_4262" x1="3.5" y1="2" x2="15.5" y2="31" gradientUnits="userSpaceOnUse">
<stop stop-color="#DBDDEB" stop-opacity="0.71"/>
<stop offset="1" stop-color="#DBDDEB" stop-opacity="0"/>
</linearGradient>
<linearGradient id="paint67_linear_994_4262" x1="3.5" y1="2" x2="15.5" y2="31" gradientUnits="userSpaceOnUse">
<stop stop-color="#DBDDEB" stop-opacity="0.71"/>
<stop offset="1" stop-color="#DBDDEB" stop-opacity="0"/>
</linearGradient>
<linearGradient id="paint68_linear_994_4262" x1="3.5" y1="2" x2="15.5" y2="31" gradientUnits="userSpaceOnUse">
<stop stop-color="#DBDDEB" stop-opacity="0.71"/>
<stop offset="1" stop-color="#DBDDEB" stop-opacity="0"/>
</linearGradient>
<linearGradient id="paint69_linear_994_4262" x1="256.5" y1="754" x2="268.5" y2="783" gradientUnits="userSpaceOnUse">
<stop stop-color="#DBDDEB" stop-opacity="0.71"/>
<stop offset="1" stop-color="#DBDDEB" stop-opacity="0"/>
</linearGradient>
<linearGradient id="paint70_linear_994_4262" x1="256.5" y1="754" x2="268.5" y2="783" gradientUnits="userSpaceOnUse">
<stop stop-color="#DBDDEB" stop-opacity="0.71"/>
<stop offset="1" stop-color="#DBDDEB" stop-opacity="0"/>
</linearGradient>
<linearGradient id="paint71_linear_994_4262" x1="191.5" y1="754" x2="203.5" y2="783" gradientUnits="userSpaceOnUse">
<stop stop-color="#DBDDEB" stop-opacity="0.71"/>
<stop offset="1" stop-color="#DBDDEB" stop-opacity="0"/>
</linearGradient>
<linearGradient id="paint72_linear_994_4262" x1="191.5" y1="754" x2="203.5" y2="783" gradientUnits="userSpaceOnUse">
<stop stop-color="#DBDDEB" stop-opacity="0.71"/>
<stop offset="1" stop-color="#DBDDEB" stop-opacity="0"/>
</linearGradient>
<linearGradient id="paint73_linear_994_4262" x1="159.5" y1="658" x2="171.5" y2="687" gradientUnits="userSpaceOnUse">
<stop stop-color="#DBDDEB" stop-opacity="0.71"/>
<stop offset="1" stop-color="#DBDDEB" stop-opacity="0"/>
</linearGradient>
<linearGradient id="paint74_linear_994_4262" x1="159.5" y1="658" x2="171.5" y2="687" gradientUnits="userSpaceOnUse">
<stop stop-color="#DBDDEB" stop-opacity="0.71"/>
<stop offset="1" stop-color="#DBDDEB" stop-opacity="0"/>
</linearGradient>
<linearGradient id="paint75_linear_994_4262" x1="223.5" y1="658" x2="235.5" y2="687" gradientUnits="userSpaceOnUse">
<stop stop-color="#DBDDEB" stop-opacity="0.71"/>
<stop offset="1" stop-color="#DBDDEB" stop-opacity="0"/>
</linearGradient>
<linearGradient id="paint76_linear_994_4262" x1="223.5" y1="658" x2="235.5" y2="687" gradientUnits="userSpaceOnUse">
<stop stop-color="#DBDDEB" stop-opacity="0.71"/>
<stop offset="1" stop-color="#DBDDEB" stop-opacity="0"/>
</linearGradient>
<linearGradient id="paint77_linear_994_4262" x1="287.5" y1="658" x2="299.5" y2="687" gradientUnits="userSpaceOnUse">
<stop stop-color="#DBDDEB" stop-opacity="0.71"/>
<stop offset="1" stop-color="#DBDDEB" stop-opacity="0"/>
</linearGradient>
<linearGradient id="paint78_linear_994_4262" x1="287.5" y1="658" x2="299.5" y2="687" gradientUnits="userSpaceOnUse">
<stop stop-color="#DBDDEB" stop-opacity="0.71"/>
<stop offset="1" stop-color="#DBDDEB" stop-opacity="0"/>
</linearGradient>
<linearGradient id="paint79_linear_994_4262" x1="351.5" y1="658" x2="363.5" y2="687" gradientUnits="userSpaceOnUse">
<stop stop-color="#DBDDEB" stop-opacity="0.71"/>
<stop offset="1" stop-color="#DBDDEB" stop-opacity="0"/>
</linearGradient>
<linearGradient id="paint80_linear_994_4262" x1="351.5" y1="658" x2="363.5" y2="687" gradientUnits="userSpaceOnUse">
<stop stop-color="#DBDDEB" stop-opacity="0.71"/>
<stop offset="1" stop-color="#DBDDEB" stop-opacity="0"/>
</linearGradient>
<linearGradient id="paint81_linear_994_4262" x1="192.5" y1="818" x2="204.5" y2="847" gradientUnits="userSpaceOnUse">
<stop stop-color="#DBDDEB" stop-opacity="0.71"/>
<stop offset="1" stop-color="#DBDDEB" stop-opacity="0"/>
</linearGradient>
<linearGradient id="paint82_linear_994_4262" x1="192.5" y1="818" x2="204.5" y2="847" gradientUnits="userSpaceOnUse">
<stop stop-color="#DBDDEB" stop-opacity="0.71"/>
<stop offset="1" stop-color="#DBDDEB" stop-opacity="0"/>
</linearGradient>
<linearGradient id="paint83_linear_994_4262" x1="127.5" y1="818" x2="139.5" y2="847" gradientUnits="userSpaceOnUse">
<stop stop-color="#DBDDEB" stop-opacity="0.71"/>
<stop offset="1" stop-color="#DBDDEB" stop-opacity="0"/>
</linearGradient>
<linearGradient id="paint84_linear_994_4262" x1="127.5" y1="818" x2="139.5" y2="847" gradientUnits="userSpaceOnUse">
<stop stop-color="#DBDDEB" stop-opacity="0.71"/>
<stop offset="1" stop-color="#DBDDEB" stop-opacity="0"/>
</linearGradient>
<linearGradient id="paint85_linear_994_4262" x1="255.5" y1="818" x2="267.5" y2="847" gradientUnits="userSpaceOnUse">
<stop stop-color="#DBDDEB" stop-opacity="0.71"/>
<stop offset="1" stop-color="#DBDDEB" stop-opacity="0"/>
</linearGradient>
<linearGradient id="paint86_linear_994_4262" x1="255.5" y1="818" x2="267.5" y2="847" gradientUnits="userSpaceOnUse">
<stop stop-color="#DBDDEB" stop-opacity="0.71"/>
<stop offset="1" stop-color="#DBDDEB" stop-opacity="0"/>
</linearGradient>
<linearGradient id="paint87_linear_994_4262" x1="320.5" y1="818" x2="332.5" y2="847" gradientUnits="userSpaceOnUse">
<stop stop-color="#DBDDEB" stop-opacity="0.71"/>
<stop offset="1" stop-color="#DBDDEB" stop-opacity="0"/>
</linearGradient>
<linearGradient id="paint88_linear_994_4262" x1="320.5" y1="818" x2="332.5" y2="847" gradientUnits="userSpaceOnUse">
<stop stop-color="#DBDDEB" stop-opacity="0.71"/>
<stop offset="1" stop-color="#DBDDEB" stop-opacity="0"/>
</linearGradient>
<linearGradient id="paint89_linear_994_4262" x1="383.5" y1="818" x2="395.5" y2="847" gradientUnits="userSpaceOnUse">
<stop stop-color="#DBDDEB" stop-opacity="0.71"/>
<stop offset="1" stop-color="#DBDDEB" stop-opacity="0"/>
</linearGradient>
<linearGradient id="paint90_linear_994_4262" x1="383.5" y1="818" x2="395.5" y2="847" gradientUnits="userSpaceOnUse">
<stop stop-color="#DBDDEB" stop-opacity="0.71"/>
<stop offset="1" stop-color="#DBDDEB" stop-opacity="0"/>
</linearGradient>
<linearGradient id="paint91_linear_994_4262" x1="319.5" y1="754" x2="331.5" y2="783" gradientUnits="userSpaceOnUse">
<stop stop-color="#DBDDEB" stop-opacity="0.71"/>
<stop offset="1" stop-color="#DBDDEB" stop-opacity="0"/>
</linearGradient>
<linearGradient id="paint92_linear_994_4262" x1="319.5" y1="754" x2="331.5" y2="783" gradientUnits="userSpaceOnUse">
<stop stop-color="#DBDDEB" stop-opacity="0.71"/>
<stop offset="1" stop-color="#DBDDEB" stop-opacity="0"/>
</linearGradient>
<linearGradient id="paint93_linear_994_4262" x1="383.5" y1="754" x2="395.5" y2="783" gradientUnits="userSpaceOnUse">
<stop stop-color="#DBDDEB" stop-opacity="0.71"/>
<stop offset="1" stop-color="#DBDDEB" stop-opacity="0"/>
</linearGradient>
<linearGradient id="paint94_linear_994_4262" x1="383.5" y1="754" x2="395.5" y2="783" gradientUnits="userSpaceOnUse">
<stop stop-color="#DBDDEB" stop-opacity="0.71"/>
<stop offset="1" stop-color="#DBDDEB" stop-opacity="0"/>
</linearGradient>
<linearGradient id="paint95_linear_994_4262" x1="287.5" y1="786" x2="299.5" y2="815" gradientUnits="userSpaceOnUse">
<stop stop-color="#DBDDEB" stop-opacity="0.71"/>
<stop offset="1" stop-color="#DBDDEB" stop-opacity="0"/>
</linearGradient>
<linearGradient id="paint96_linear_994_4262" x1="287.5" y1="786" x2="299.5" y2="815" gradientUnits="userSpaceOnUse">
<stop stop-color="#DBDDEB" stop-opacity="0.71"/>
<stop offset="1" stop-color="#DBDDEB" stop-opacity="0"/>
</linearGradient>
<linearGradient id="paint97_linear_994_4262" x1="223.5" y1="786" x2="235.5" y2="815" gradientUnits="userSpaceOnUse">
<stop stop-color="#DBDDEB" stop-opacity="0.71"/>
<stop offset="1" stop-color="#DBDDEB" stop-opacity="0"/>
</linearGradient>
<linearGradient id="paint98_linear_994_4262" x1="223.5" y1="786" x2="235.5" y2="815" gradientUnits="userSpaceOnUse">
<stop stop-color="#DBDDEB" stop-opacity="0.71"/>
<stop offset="1" stop-color="#DBDDEB" stop-opacity="0"/>
</linearGradient>
<linearGradient id="paint99_linear_994_4262" x1="159.5" y1="786" x2="171.5" y2="815" gradientUnits="userSpaceOnUse">
<stop stop-color="#DBDDEB" stop-opacity="0.71"/>
<stop offset="1" stop-color="#DBDDEB" stop-opacity="0"/>
</linearGradient>
<linearGradient id="paint100_linear_994_4262" x1="159.5" y1="786" x2="171.5" y2="815" gradientUnits="userSpaceOnUse">
<stop stop-color="#DBDDEB" stop-opacity="0.71"/>
<stop offset="1" stop-color="#DBDDEB" stop-opacity="0"/>
</linearGradient>
<linearGradient id="paint101_linear_994_4262" x1="351.5" y1="786" x2="363.5" y2="815" gradientUnits="userSpaceOnUse">
<stop stop-color="#DBDDEB" stop-opacity="0.71"/>
<stop offset="1" stop-color="#DBDDEB" stop-opacity="0"/>
</linearGradient>
<linearGradient id="paint102_linear_994_4262" x1="351.5" y1="786" x2="363.5" y2="815" gradientUnits="userSpaceOnUse">
<stop stop-color="#DBDDEB" stop-opacity="0.71"/>
<stop offset="1" stop-color="#DBDDEB" stop-opacity="0"/>
</linearGradient>
<clipPath id="clip0_994_4262">
<rect width="375" height="812" fill="white"/>
</clipPath>
</defs>
</svg>
